<svg xmlns="http://www.w3.org/2000/svg" xml:space="preserve" viewBox="0 0 256 256"><g stroke-width="0" stroke-miterlimit="10"><path fill="currentColor" d="M127.9 201c-45 0-81.5-36.6-81.5-81.6a8.7 8.7 0 0 1 17.4 0 64.3 64.3 0 0 0 128.1 0 8.7 8.7 0 1 1 17.4 0c0 45-36.5 81.5-81.5 81.5z"/><path fill="currentColor" d="M127.9 172a52.8 52.8 0 0 1-52.6-52.6V54a52.6 52.6 0 0 1 105.1 0v65.5c0 29-23.6 52.6-52.5 52.6zm0 80a8.7 8.7 0 0 1-8.8-8.4v-49.4a8.7 8.7 0 0 1 17.5 0V243c0 4.7-4 8.7-8.7 8.7z"/><path fill="currentColor" d="M157.4 254.3h-59a8.7 8.7 0 1 1 0-17.4h59a8.7 8.7 0 1 1 0 17.4z"/></g></svg>